<?xml version="1.0" encoding="UTF-8" standalone="no"?>
<svg
   width="76.583336"
   zoomAndPan="magnify"
   viewBox="0 0 57.437502 57.437533"
   height="76.583382"
   preserveAspectRatio="xMidYMid"
   version="1.0"
   id="svg1399"
   sodipodi:docname="3.svg"
   xmlns:inkscape="http://www.inkscape.org/namespaces/inkscape"
   xmlns:sodipodi="http://sodipodi.sourceforge.net/DTD/sodipodi-0.dtd"
   xmlns="http://www.w3.org/2000/svg"
   xmlns:svg="http://www.w3.org/2000/svg">
  <sodipodi:namedview
     id="namedview1401"
     pagecolor="#ffffff"
     bordercolor="#000000"
     borderopacity="0.25"
     inkscape:showpageshadow="2"
     inkscape:pageopacity="0.0"
     inkscape:pagecheckerboard="0"
     inkscape:deskcolor="#d1d1d1"
     showgrid="false" />
  <defs
     id="defs943">
    <clipPath
       id="efa12a6043">
      <path
         d="m 215.38281,432.92969 h 57.4375 v 57.4375 h -57.4375 z m 0,0"
         clip-rule="nonzero"
         id="path802" />
    </clipPath>
    <clipPath
       id="e5c65cbb18">
      <path
         d="m 244.10156,432.92969 c -15.85937,0 -28.71875,12.85547 -28.71875,28.71875 0,15.85937 12.85938,28.71875 28.71875,28.71875 15.86328,0 28.71875,-12.85938 28.71875,-28.71875 0,-15.86328 -12.85547,-28.71875 -28.71875,-28.71875 z m 0,0"
         clip-rule="nonzero"
         id="path805" />
    </clipPath>
    <clipPath
       id="68440cafb4">
      <path
         d="m 224.67969,442.22266 h 38.54297 v 38.54687 h -38.54297 z m 0,0"
         clip-rule="nonzero"
         id="path808" />
    </clipPath>
  </defs>
  <g
     clip-path="url(#efa12a6043)"
     id="g1203"
     transform="translate(-215.38282,-432.92967)">
    <g
       clip-path="url(#e5c65cbb18)"
       id="g1201">
      <path
         fill="#ff516b"
         d="m 215.38281,432.92969 h 57.4375 v 57.4375 h -57.4375 z m 0,0"
         fill-opacity="1"
         fill-rule="nonzero"
         id="path1199" />
    </g>
  </g>
  <g
     clip-path="url(#68440cafb4)"
     id="g1207"
     transform="translate(-215.38282,-432.92967)"
     inkscape:export-filename="..\..\..\..\..\2Y\tintaPH\assets2\uploadbtn.svg"
     inkscape:export-xdpi="96"
     inkscape:export-ydpi="96">
    <path
       fill="#ffffff"
       d="m 225.97266,462.94141 h 16.83203 v 16.82812 c 0,0.71484 0.57812,1.29688 1.29687,1.29688 0.71485,0 1.29297,-0.58204 1.29297,-1.29688 v -16.82812 h 16.83203 c 0.71485,0 1.29297,-0.58204 1.29297,-1.29688 0,-0.71484 -0.57812,-1.29297 -1.29297,-1.29297 h -16.83203 v -16.83203 c 0,-0.71484 -0.57812,-1.29687 -1.29297,-1.29687 -0.71875,0 -1.29687,0.58203 -1.29687,1.29687 v 16.83203 h -16.83203 c -0.71485,0 -1.29297,0.57813 -1.29297,1.29297 0,0.71484 0.57812,1.29688 1.29297,1.29688 z m 0,0"
       fill-opacity="1"
       fill-rule="nonzero"
       id="path1205" />
  </g>
</svg>
