<?xml version="1.0" encoding="UTF-8" standalone="no"?>
<svg
   width="40.526081"
   zoomAndPan="magnify"
   viewBox="0 0 30.394561 30.39453"
   height="40.526043"
   preserveAspectRatio="xMidYMid"
   version="1.0"
   id="svg727"
   sodipodi:docname="usericon.svg"
   inkscape:version="1.2.2 (732a01da63, 2022-12-09)"
   xmlns:inkscape="http://www.inkscape.org/namespaces/inkscape"
   xmlns:sodipodi="http://sodipodi.sourceforge.net/DTD/sodipodi-0.dtd"
   xmlns="http://www.w3.org/2000/svg"
   xmlns:svg="http://www.w3.org/2000/svg">
  <sodipodi:namedview
     id="namedview729"
     pagecolor="#ffffff"
     bordercolor="#000000"
     borderopacity="0.25"
     inkscape:showpageshadow="2"
     inkscape:pageopacity="0.0"
     inkscape:pagecheckerboard="0"
     inkscape:deskcolor="#d1d1d1"
     showgrid="false"
     inkscape:zoom="3.2366424"
     inkscape:cx="95.778268"
     inkscape:cy="-5.5613188"
     inkscape:window-width="1920"
     inkscape:window-height="974"
     inkscape:window-x="-11"
     inkscape:window-y="-11"
     inkscape:window-maximized="1"
     inkscape:current-layer="g559" />
  <defs
     id="defs271">
    <clipPath
       id="dedf95512b">
      <path
         d="m 213.70312,3.464844 h 30.70704 V 34 h -30.70704 z m 0,0"
         clip-rule="nonzero"
         id="path151" />
    </clipPath>
  </defs>
  <g
     clip-path="url(#dedf95512b)"
     id="g559"
     transform="translate(-213.70311,-3.4648456)"
     inkscape:export-filename="..\..\..\..\..\2Y\tintaPH\assets2\usericon.svg"
     inkscape:export-xdpi="96"
     inkscape:export-ydpi="96">
    <path
       fill="#bfc7cc"
       d="m 244.09766,18.664062 c 0,3.886719 -1.46094,7.429688 -3.86329,10.117188 -2.78125,3.117188 -6.82812,5.078125 -11.33593,5.078125 -4.50391,0 -8.55469,-1.960937 -11.33594,-5.078125 -2.40234,-2.6875 -3.85938,-6.230469 -3.85938,-10.117188 0,-8.394531 6.80469,-15.199218 15.19532,-15.199218 8.39453,0 15.19922,6.804687 15.19922,15.199218"
       fill-opacity="1"
       fill-rule="nonzero"
       id="path557"
       style="fill:#000000" />
  </g>
  <path
     fill="#f2f2f2"
     d="m 15.19532,17.996092 c 2.75391,0 5.26563,-3.117188 5.26563,-6.539063 0,-3.2304686 -0.625,-6.4257806 -5.26563,-6.4257806 -4.63672,0 -5.26172,3.195312 -5.26172,6.4257806 0,3.421875 2.50782,6.539063 5.26172,6.539063"
     fill-opacity="1"
     fill-rule="nonzero"
     id="path561" />
  <path
     fill="#f2f2f2"
     d="m 26.53126,25.316404 c -2.78125,3.117188 -6.82812,5.078125 -11.33594,5.078125 -4.5039,0 -8.55468,-1.960937 -11.33593,-5.078125 -0.0469,-1.875 1.20312,-6.222656 7.57812,-7.5625 1.08984,1.113281 2.43359,1.742188 3.75781,1.742188 1.32813,0 2.66797,-0.628907 3.75782,-1.742188 6.375,1.339844 7.625,5.6875 7.57812,7.5625"
     fill-opacity="1"
     fill-rule="nonzero"
     id="path563" />
</svg>
